<mxfile host="65bd71144e">
    <diagram id="sf5Tu4jq8F1Bwl_-Hn-f" name="Page-4">
        <mxGraphModel dx="1746" dy="1731" grid="1" gridSize="10" guides="1" tooltips="1" connect="1" arrows="1" fold="1" page="1" pageScale="1" pageWidth="1169" pageHeight="1654" background="#ffffff" math="0" shadow="0">
            <root>
                <mxCell id="0"/>
                <mxCell id="1" parent="0"/>
                <mxCell id="MFn5l7SoFBMoEaA_jS1z-1" value="Send angle to Swerve Driver" style="swimlane;labelBackgroundColor=none;strokeColor=#0a0a0a;strokeWidth=2;fontSize=17;fillColor=none;gradientColor=default;startSize=30;fontColor=#000000;" vertex="1" parent="1">
                    <mxGeometry x="2654" y="240" width="538" height="760" as="geometry"/>
                </mxCell>
                <mxCell id="MFn5l7SoFBMoEaA_jS1z-2" value="" style="edgeStyle=none;html=1;fontSize=17;strokeColor=#050505;" edge="1" parent="MFn5l7SoFBMoEaA_jS1z-1" source="MFn5l7SoFBMoEaA_jS1z-3" target="MFn5l7SoFBMoEaA_jS1z-5">
                    <mxGeometry relative="1" as="geometry"/>
                </mxCell>
                <mxCell id="MFn5l7SoFBMoEaA_jS1z-3" value="Init data buffer array [3]&lt;br&gt;with fisrt&amp;nbsp;byte is 0x05" style="shape=parallelogram;html=1;strokeWidth=2;perimeter=parallelogramPerimeter;whiteSpace=wrap;rounded=1;arcSize=12;size=0.23;labelBackgroundColor=none;strokeColor=#666666;fontSize=17;fillColor=#f5f5f5;fontColor=#333333;" vertex="1" parent="MFn5l7SoFBMoEaA_jS1z-1">
                    <mxGeometry x="105.87" y="160" width="325" height="90" as="geometry"/>
                </mxCell>
                <mxCell id="MFn5l7SoFBMoEaA_jS1z-4" value="" style="edgeStyle=none;html=1;fontSize=17;strokeColor=#050505;" edge="1" parent="MFn5l7SoFBMoEaA_jS1z-1" source="MFn5l7SoFBMoEaA_jS1z-5" target="MFn5l7SoFBMoEaA_jS1z-10">
                    <mxGeometry relative="1" as="geometry"/>
                </mxCell>
                <mxCell id="MFn5l7SoFBMoEaA_jS1z-5" value="&lt;div style=&quot;text-align: left;&quot;&gt;&lt;span style=&quot;background-color: initial;&quot;&gt;array[1] = (uint8_t)((angle &amp;amp; 0xFF00) &amp;gt;&amp;gt; 8)&lt;/span&gt;&lt;/div&gt;&lt;div style=&quot;text-align: left;&quot;&gt;&lt;span style=&quot;background-color: initial;&quot;&gt;array[2] = (uint8_t)(angle &amp;amp; 0x00FF)&lt;/span&gt;&lt;/div&gt;" style="rounded=1;whiteSpace=wrap;html=1;fontSize=17;fillColor=#f5f5f5;strokeWidth=2;arcSize=12;labelBackgroundColor=none;fontColor=#333333;strokeColor=#666666;" vertex="1" parent="MFn5l7SoFBMoEaA_jS1z-1">
                    <mxGeometry x="64" y="290" width="408.75" height="75" as="geometry"/>
                </mxCell>
                <mxCell id="MFn5l7SoFBMoEaA_jS1z-6" value="" style="edgeStyle=none;html=1;fontSize=17;strokeColor=#050505;" edge="1" parent="MFn5l7SoFBMoEaA_jS1z-1" source="MFn5l7SoFBMoEaA_jS1z-7" target="MFn5l7SoFBMoEaA_jS1z-3">
                    <mxGeometry relative="1" as="geometry"/>
                </mxCell>
                <mxCell id="MFn5l7SoFBMoEaA_jS1z-7" value="int16_t angle&lt;br&gt;INPUT" style="shape=parallelogram;html=1;strokeWidth=2;perimeter=parallelogramPerimeter;whiteSpace=wrap;rounded=1;arcSize=12;size=0.23;labelBackgroundColor=none;strokeColor=#666666;fontSize=17;fillColor=#f5f5f5;fontColor=#333333;" vertex="1" parent="MFn5l7SoFBMoEaA_jS1z-1">
                    <mxGeometry x="179.62" y="60" width="177.5" height="60" as="geometry"/>
                </mxCell>
                <mxCell id="MFn5l7SoFBMoEaA_jS1z-8" value="" style="edgeStyle=none;html=1;fontSize=17;strokeColor=#050505;" edge="1" parent="MFn5l7SoFBMoEaA_jS1z-1" source="MFn5l7SoFBMoEaA_jS1z-10" target="MFn5l7SoFBMoEaA_jS1z-12">
                    <mxGeometry relative="1" as="geometry"/>
                </mxCell>
                <mxCell id="MFn5l7SoFBMoEaA_jS1z-9" value="" style="edgeStyle=none;html=1;fontSize=17;strokeColor=#050505;" edge="1" parent="MFn5l7SoFBMoEaA_jS1z-1" source="MFn5l7SoFBMoEaA_jS1z-10" target="MFn5l7SoFBMoEaA_jS1z-14">
                    <mxGeometry relative="1" as="geometry"/>
                </mxCell>
                <mxCell id="MFn5l7SoFBMoEaA_jS1z-10" value="I2C transmit to Swerve Driver" style="rounded=1;whiteSpace=wrap;html=1;fontSize=17;fillColor=#f5f5f5;strokeWidth=2;arcSize=12;labelBackgroundColor=none;fontColor=#333333;strokeColor=#666666;" vertex="1" parent="MFn5l7SoFBMoEaA_jS1z-1">
                    <mxGeometry x="128.38" y="460" width="280" height="87.5" as="geometry"/>
                </mxCell>
                <mxCell id="MFn5l7SoFBMoEaA_jS1z-11" value="" style="edgeStyle=none;html=1;fontSize=17;strokeColor=#050505;" edge="1" parent="MFn5l7SoFBMoEaA_jS1z-1" source="MFn5l7SoFBMoEaA_jS1z-12" target="MFn5l7SoFBMoEaA_jS1z-20">
                    <mxGeometry relative="1" as="geometry"/>
                </mxCell>
                <mxCell id="MFn5l7SoFBMoEaA_jS1z-12" value="HAL_OK ?" style="rhombus;whiteSpace=wrap;html=1;fontSize=17;fillColor=#f5f5f5;rounded=1;strokeWidth=2;arcSize=12;labelBackgroundColor=none;fontColor=#333333;strokeColor=#666666;" vertex="1" parent="MFn5l7SoFBMoEaA_jS1z-1">
                    <mxGeometry x="205.89" y="620" width="124.98" height="98.75" as="geometry"/>
                </mxCell>
                <mxCell id="MFn5l7SoFBMoEaA_jS1z-13" value="" style="edgeStyle=none;html=1;fontSize=17;strokeColor=#050505;" edge="1" parent="MFn5l7SoFBMoEaA_jS1z-1" source="MFn5l7SoFBMoEaA_jS1z-14" target="MFn5l7SoFBMoEaA_jS1z-17">
                    <mxGeometry relative="1" as="geometry"/>
                </mxCell>
                <mxCell id="MFn5l7SoFBMoEaA_jS1z-14" value="" style="shape=waypoint;sketch=0;size=6;pointerEvents=1;points=[];fillColor=none;resizable=0;rotatable=0;perimeter=centerPerimeter;snapToPoint=1;fontSize=17;rounded=1;strokeWidth=2;arcSize=12;labelBackgroundColor=none;gradientColor=default;" vertex="1" parent="MFn5l7SoFBMoEaA_jS1z-1">
                    <mxGeometry x="438.37" y="493.75" width="20" height="20" as="geometry"/>
                </mxCell>
                <mxCell id="MFn5l7SoFBMoEaA_jS1z-15" value="" style="edgeStyle=none;html=1;fontSize=17;strokeColor=#050505;" edge="1" parent="MFn5l7SoFBMoEaA_jS1z-1">
                    <mxGeometry relative="1" as="geometry">
                        <mxPoint x="448.37" y="440" as="sourcePoint"/>
                        <mxPoint x="268.37" y="440" as="targetPoint"/>
                    </mxGeometry>
                </mxCell>
                <mxCell id="MFn5l7SoFBMoEaA_jS1z-16" value="2 times" style="edgeLabel;html=1;align=center;verticalAlign=middle;resizable=0;points=[];fontSize=17;labelBackgroundColor=#FFFFFF;fontColor=#050505;" vertex="1" connectable="0" parent="MFn5l7SoFBMoEaA_jS1z-15">
                    <mxGeometry x="-0.0516" relative="1" as="geometry">
                        <mxPoint as="offset"/>
                    </mxGeometry>
                </mxCell>
                <mxCell id="MFn5l7SoFBMoEaA_jS1z-17" value="" style="shape=waypoint;sketch=0;size=6;pointerEvents=1;points=[];fillColor=none;resizable=0;rotatable=0;perimeter=centerPerimeter;snapToPoint=1;fontSize=17;rounded=1;strokeWidth=2;arcSize=12;labelBackgroundColor=none;gradientColor=default;" vertex="1" parent="MFn5l7SoFBMoEaA_jS1z-1">
                    <mxGeometry x="438.37" y="430" width="20" height="20" as="geometry"/>
                </mxCell>
                <mxCell id="MFn5l7SoFBMoEaA_jS1z-18" value="" style="edgeStyle=none;html=1;fontSize=17;strokeColor=#050505;" edge="1" parent="MFn5l7SoFBMoEaA_jS1z-1" source="MFn5l7SoFBMoEaA_jS1z-20" target="MFn5l7SoFBMoEaA_jS1z-22">
                    <mxGeometry relative="1" as="geometry"/>
                </mxCell>
                <mxCell id="MFn5l7SoFBMoEaA_jS1z-19" value="False" style="edgeLabel;html=1;align=center;verticalAlign=middle;resizable=0;points=[];fontSize=17;labelBackgroundColor=#FFFFFF;fontColor=#050505;" vertex="1" connectable="0" parent="MFn5l7SoFBMoEaA_jS1z-18">
                    <mxGeometry x="0.0731" y="-1" relative="1" as="geometry">
                        <mxPoint x="-1" y="5" as="offset"/>
                    </mxGeometry>
                </mxCell>
                <mxCell id="MFn5l7SoFBMoEaA_jS1z-20" value="" style="shape=waypoint;sketch=0;size=6;pointerEvents=1;points=[];fillColor=none;resizable=0;rotatable=0;perimeter=centerPerimeter;snapToPoint=1;fontSize=17;rounded=1;strokeWidth=2;arcSize=12;labelBackgroundColor=none;gradientColor=default;" vertex="1" parent="MFn5l7SoFBMoEaA_jS1z-1">
                    <mxGeometry x="488.37" y="659.375" width="20" height="20" as="geometry"/>
                </mxCell>
                <mxCell id="MFn5l7SoFBMoEaA_jS1z-21" value="" style="edgeStyle=none;html=1;fontSize=17;strokeColor=#050505;" edge="1" parent="MFn5l7SoFBMoEaA_jS1z-1" source="MFn5l7SoFBMoEaA_jS1z-22">
                    <mxGeometry relative="1" as="geometry">
                        <mxPoint x="268.37" y="400" as="targetPoint"/>
                    </mxGeometry>
                </mxCell>
                <mxCell id="MFn5l7SoFBMoEaA_jS1z-22" value="" style="shape=waypoint;sketch=0;size=6;pointerEvents=1;points=[];fillColor=none;resizable=0;rotatable=0;perimeter=centerPerimeter;snapToPoint=1;fontSize=17;rounded=1;strokeWidth=2;arcSize=12;labelBackgroundColor=none;gradientColor=default;" vertex="1" parent="MFn5l7SoFBMoEaA_jS1z-1">
                    <mxGeometry x="488.37" y="390.005" width="20" height="20" as="geometry"/>
                </mxCell>
            </root>
        </mxGraphModel>
    </diagram>
    <diagram id="LgjHjMKBJpjoU6trHhx2" name="Page-1">
        <mxGraphModel dx="4595" dy="1948" grid="1" gridSize="10" guides="1" tooltips="1" connect="1" arrows="1" fold="1" page="1" pageScale="1" pageWidth="1169" pageHeight="1654" background="#ffffff" math="0" shadow="0">
            <root>
                <mxCell id="0"/>
                <mxCell id="1" parent="0"/>
                <mxCell id="20" value="" style="edgeStyle=none;html=1;strokeColor=#000000;" edge="1" parent="1" source="18" target="19">
                    <mxGeometry relative="1" as="geometry"/>
                </mxCell>
                <mxCell id="22" value="" style="edgeStyle=none;html=1;strokeColor=#000000;" edge="1" parent="1" source="19" target="21">
                    <mxGeometry relative="1" as="geometry"/>
                </mxCell>
                <mxCell id="19" value="Config SystemClock" style="whiteSpace=wrap;html=1;rounded=1;arcSize=14;strokeWidth=2;fillColor=#f5f5f5;fontColor=#333333;strokeColor=#666666;" vertex="1" parent="1">
                    <mxGeometry x="530" y="270" width="120" height="60" as="geometry"/>
                </mxCell>
                <mxCell id="24" value="" style="edgeStyle=none;html=1;strokeColor=#000000;" edge="1" parent="1" source="21" target="23">
                    <mxGeometry relative="1" as="geometry"/>
                </mxCell>
                <mxCell id="21" value="Init GPIO, Timer,&amp;nbsp;&lt;br&gt;USART, I2C" style="whiteSpace=wrap;html=1;rounded=1;arcSize=14;strokeWidth=2;fillColor=#f5f5f5;fontColor=#333333;strokeColor=#666666;" vertex="1" parent="1">
                    <mxGeometry x="530" y="370" width="120" height="60" as="geometry"/>
                </mxCell>
                <mxCell id="26" value="" style="edgeStyle=none;html=1;strokeColor=#000000;" edge="1" parent="1" source="23" target="25">
                    <mxGeometry relative="1" as="geometry"/>
                </mxCell>
                <mxCell id="23" value="Init Wings home position" style="rounded=1;whiteSpace=wrap;html=1;arcSize=14;strokeWidth=2;fillColor=#f5f5f5;fontColor=#333333;strokeColor=#666666;" vertex="1" parent="1">
                    <mxGeometry x="530" y="470" width="120" height="60" as="geometry"/>
                </mxCell>
                <mxCell id="31" value="" style="edgeStyle=none;html=1;strokeColor=#000000;" edge="1" parent="1" source="25" target="30">
                    <mxGeometry relative="1" as="geometry"/>
                </mxCell>
                <mxCell id="25" value="Scan I2C address of&lt;br&gt;Swerve Driver" style="whiteSpace=wrap;html=1;rounded=1;arcSize=14;strokeWidth=2;fillColor=#f5f5f5;fontColor=#333333;strokeColor=#666666;" vertex="1" parent="1">
                    <mxGeometry x="530" y="570" width="120" height="60" as="geometry"/>
                </mxCell>
                <mxCell id="33" value="" style="edgeStyle=none;html=1;strokeColor=#000000;" edge="1" parent="1" source="30" target="32">
                    <mxGeometry relative="1" as="geometry"/>
                </mxCell>
                <mxCell id="38" value="" style="edgeStyle=none;html=1;strokeColor=#000000;" edge="1" parent="1" source="30" target="37">
                    <mxGeometry relative="1" as="geometry"/>
                </mxCell>
                <mxCell id="30" value="HAL_OK" style="rhombus;whiteSpace=wrap;html=1;rounded=1;arcSize=14;strokeWidth=2;fillColor=#f5f5f5;fontColor=#333333;strokeColor=#666666;" vertex="1" parent="1">
                    <mxGeometry x="550" y="660" width="80" height="80" as="geometry"/>
                </mxCell>
                <mxCell id="35" value="" style="edgeStyle=none;html=1;strokeColor=#000000;" edge="1" parent="1" source="32" target="34">
                    <mxGeometry relative="1" as="geometry"/>
                </mxCell>
                <mxCell id="112" value="False" style="edgeLabel;html=1;align=center;verticalAlign=middle;resizable=0;points=[];fontSize=14;labelBackgroundColor=#f4f1f8;fontColor=#000000;" vertex="1" connectable="0" parent="35">
                    <mxGeometry x="-0.1854" relative="1" as="geometry">
                        <mxPoint y="-9" as="offset"/>
                    </mxGeometry>
                </mxCell>
                <mxCell id="32" value="" style="shape=waypoint;sketch=0;size=6;pointerEvents=1;points=[];fillColor=default;resizable=0;rotatable=0;perimeter=centerPerimeter;snapToPoint=1;rounded=1;arcSize=14;strokeWidth=2;" vertex="1" parent="1">
                    <mxGeometry x="710" y="690" width="20" height="20" as="geometry"/>
                </mxCell>
                <mxCell id="36" value="" style="edgeStyle=none;html=1;strokeColor=#000000;" edge="1" parent="1" source="34" target="25">
                    <mxGeometry relative="1" as="geometry"/>
                </mxCell>
                <mxCell id="34" value="" style="shape=waypoint;sketch=0;size=6;pointerEvents=1;points=[];fillColor=default;resizable=0;rotatable=0;perimeter=centerPerimeter;snapToPoint=1;rounded=1;arcSize=14;strokeWidth=2;" vertex="1" parent="1">
                    <mxGeometry x="710" y="590" width="20" height="20" as="geometry"/>
                </mxCell>
                <mxCell id="40" value="" style="edgeStyle=none;html=1;strokeColor=#000000;" edge="1" parent="1" source="37" target="39">
                    <mxGeometry relative="1" as="geometry"/>
                </mxCell>
                <mxCell id="37" value="Send init angle for&amp;nbsp;&lt;br&gt;Swerve Driver" style="whiteSpace=wrap;html=1;rounded=1;arcSize=14;strokeWidth=2;fillColor=#f5f5f5;fontColor=#333333;strokeColor=#666666;" vertex="1" parent="1">
                    <mxGeometry x="530" y="780" width="120" height="60" as="geometry"/>
                </mxCell>
                <mxCell id="44" value="" style="edgeStyle=none;html=1;strokeColor=#000000;" edge="1" parent="1" source="39" target="43">
                    <mxGeometry relative="1" as="geometry"/>
                </mxCell>
                <mxCell id="39" value="Enable DMA for USART of RF &lt;br&gt;module" style="whiteSpace=wrap;html=1;rounded=1;arcSize=14;strokeWidth=2;fillColor=#f5f5f5;fontColor=#333333;strokeColor=#666666;" vertex="1" parent="1">
                    <mxGeometry x="530" y="880" width="120" height="60" as="geometry"/>
                </mxCell>
                <mxCell id="46" value="" style="edgeStyle=none;html=1;strokeColor=#000000;" edge="1" parent="1" source="43" target="45">
                    <mxGeometry relative="1" as="geometry"/>
                </mxCell>
                <mxCell id="43" value="Scan &amp;amp; Store joystick, button data into data array" style="rounded=1;whiteSpace=wrap;html=1;arcSize=14;strokeWidth=2;fillColor=#f5f5f5;fontColor=#333333;strokeColor=#666666;" vertex="1" parent="1">
                    <mxGeometry x="510" y="1010" width="160" height="90" as="geometry"/>
                </mxCell>
                <mxCell id="48" value="" style="edgeStyle=none;html=1;strokeColor=#000000;" edge="1" parent="1" source="45" target="47">
                    <mxGeometry relative="1" as="geometry"/>
                </mxCell>
                <mxCell id="45" value="Process data, divide control angle data" style="rounded=1;whiteSpace=wrap;html=1;arcSize=14;strokeWidth=2;fillColor=#f5f5f5;fontColor=#333333;strokeColor=#666666;" vertex="1" parent="1">
                    <mxGeometry x="510" y="1140" width="160" height="70" as="geometry"/>
                </mxCell>
                <mxCell id="50" value="" style="edgeStyle=none;html=1;strokeColor=#000000;" edge="1" parent="1" source="47" target="49">
                    <mxGeometry relative="1" as="geometry"/>
                </mxCell>
                <mxCell id="47" value="Send data to Swerve Driver via I2C" style="rounded=1;whiteSpace=wrap;html=1;arcSize=14;strokeWidth=2;fillColor=#f5f5f5;fontColor=#333333;strokeColor=#666666;" vertex="1" parent="1">
                    <mxGeometry x="530" y="1250" width="120" height="60" as="geometry"/>
                </mxCell>
                <mxCell id="52" value="" style="edgeStyle=none;html=1;strokeColor=#000000;" edge="1" parent="1" source="49" target="51">
                    <mxGeometry relative="1" as="geometry"/>
                </mxCell>
                <mxCell id="49" value="Control 2 wheeled motor" style="whiteSpace=wrap;html=1;rounded=1;arcSize=14;strokeWidth=2;fillColor=#f5f5f5;fontColor=#333333;strokeColor=#666666;" vertex="1" parent="1">
                    <mxGeometry x="530" y="1350" width="120" height="60" as="geometry"/>
                </mxCell>
                <mxCell id="54" value="" style="edgeStyle=none;html=1;strokeColor=#000000;" edge="1" parent="1" source="51" target="53">
                    <mxGeometry relative="1" as="geometry"/>
                </mxCell>
                <mxCell id="51" value="" style="shape=waypoint;sketch=0;size=6;pointerEvents=1;points=[];fillColor=default;resizable=0;rotatable=0;perimeter=centerPerimeter;snapToPoint=1;rounded=1;arcSize=14;strokeWidth=2;" vertex="1" parent="1">
                    <mxGeometry x="580" y="1450" width="20" height="20" as="geometry"/>
                </mxCell>
                <mxCell id="56" value="" style="edgeStyle=none;html=1;strokeColor=#000000;" edge="1" parent="1" source="53" target="55">
                    <mxGeometry relative="1" as="geometry">
                        <Array as="points">
                            <mxPoint x="740" y="1220"/>
                        </Array>
                    </mxGeometry>
                </mxCell>
                <mxCell id="53" value="" style="shape=waypoint;sketch=0;size=6;pointerEvents=1;points=[];fillColor=default;resizable=0;rotatable=0;perimeter=centerPerimeter;snapToPoint=1;rounded=1;arcSize=14;strokeWidth=2;" vertex="1" parent="1">
                    <mxGeometry x="730" y="1450" width="20" height="20" as="geometry"/>
                </mxCell>
                <mxCell id="57" value="" style="edgeStyle=none;html=1;strokeColor=#000000;" edge="1" parent="1" source="55">
                    <mxGeometry relative="1" as="geometry">
                        <mxPoint x="590" y="990" as="targetPoint"/>
                        <Array as="points"/>
                    </mxGeometry>
                </mxCell>
                <mxCell id="55" value="" style="shape=waypoint;sketch=0;size=6;pointerEvents=1;points=[];fillColor=default;resizable=0;rotatable=0;perimeter=centerPerimeter;snapToPoint=1;rounded=1;arcSize=14;strokeWidth=2;" vertex="1" parent="1">
                    <mxGeometry x="730" y="980" width="20" height="20" as="geometry"/>
                </mxCell>
                <mxCell id="60" value="MAIN" style="swimlane;strokeColor=#000000;strokeWidth=2;fillColor=none;gradientColor=default;labelPosition=center;verticalLabelPosition=middle;align=center;verticalAlign=middle;startSize=30;fontSize=14;fontColor=#080808;" vertex="1" parent="1">
                    <mxGeometry x="370" y="70" width="430" height="1420" as="geometry"/>
                </mxCell>
                <mxCell id="18" value="Reset peripherals,&lt;br&gt;init flash &amp;amp; systick" style="rounded=1;whiteSpace=wrap;html=1;absoluteArcSize=1;arcSize=14;strokeWidth=2;fillColor=#f5f5f5;fontColor=#333333;strokeColor=#666666;" vertex="1" parent="60">
                    <mxGeometry x="125" y="50" width="180" height="130" as="geometry"/>
                </mxCell>
                <mxCell id="147" value="" style="line;strokeWidth=2;html=1;labelBackgroundColor=none;strokeColor=#1A1A1A;fontSize=17;fillColor=none;gradientColor=default;fontColor=#121111;" vertex="1" parent="60">
                    <mxGeometry y="890" width="430" height="10" as="geometry"/>
                </mxCell>
                <mxCell id="148" value="LOOP" style="text;html=1;align=center;verticalAlign=middle;resizable=0;points=[];autosize=1;strokeColor=none;fillColor=none;fontSize=17;fontColor=#000000;" vertex="1" parent="1">
                    <mxGeometry x="375" y="975" width="70" height="30" as="geometry"/>
                </mxCell>
            </root>
        </mxGraphModel>
    </diagram>
    <diagram id="1zz0rGVcBCQXK4eXTrPm" name="Page-2">
        <mxGraphModel dx="2663" dy="1298" grid="1" gridSize="10" guides="1" tooltips="1" connect="1" arrows="1" fold="1" page="1" pageScale="1" pageWidth="1169" pageHeight="1654" background="#ffffff" math="1" shadow="0">
            <root>
                <mxCell id="0"/>
                <mxCell id="1" parent="0"/>
                <mxCell id="22NSbje1e0_N6CiT3W4a-1" value="Init Wings home position" style="swimlane;strokeColor=#666666;strokeWidth=2;fillColor=#f5f5f5;fontSize=14;startSize=30;fontColor=#FFFFFF;" vertex="1" parent="1">
                    <mxGeometry x="294" y="70" width="580" height="1290" as="geometry"/>
                </mxCell>
                <mxCell id="22NSbje1e0_N6CiT3W4a-2" value="" style="edgeStyle=none;html=1;fontSize=14;strokeColor=#000000;" edge="1" parent="22NSbje1e0_N6CiT3W4a-1" source="22NSbje1e0_N6CiT3W4a-3" target="22NSbje1e0_N6CiT3W4a-5">
                    <mxGeometry relative="1" as="geometry"/>
                </mxCell>
                <mxCell id="22NSbje1e0_N6CiT3W4a-3" value="Set down direction for Stepper" style="rounded=1;whiteSpace=wrap;html=1;absoluteArcSize=1;arcSize=14;strokeWidth=2;labelBackgroundColor=none;strokeColor=#666666;fontSize=14;fillColor=#f5f5f5;fontColor=#333333;" vertex="1" parent="22NSbje1e0_N6CiT3W4a-1">
                    <mxGeometry x="124.38" y="50" width="190" height="70" as="geometry"/>
                </mxCell>
                <mxCell id="22NSbje1e0_N6CiT3W4a-4" value="" style="edgeStyle=none;html=1;fontSize=14;strokeColor=#000000;" edge="1" parent="22NSbje1e0_N6CiT3W4a-1" source="22NSbje1e0_N6CiT3W4a-5" target="22NSbje1e0_N6CiT3W4a-7">
                    <mxGeometry relative="1" as="geometry"/>
                </mxCell>
                <mxCell id="22NSbje1e0_N6CiT3W4a-5" value="Pulse generate to Stepper 1" style="whiteSpace=wrap;html=1;fontSize=14;fillColor=#f5f5f5;rounded=1;arcSize=14;strokeWidth=2;labelBackgroundColor=none;fontColor=#333333;strokeColor=#666666;" vertex="1" parent="22NSbje1e0_N6CiT3W4a-1">
                    <mxGeometry x="114.38" y="180" width="210" height="70" as="geometry"/>
                </mxCell>
                <mxCell id="22NSbje1e0_N6CiT3W4a-6" value="" style="edgeStyle=none;html=1;fontSize=14;strokeColor=#080808;" edge="1" parent="22NSbje1e0_N6CiT3W4a-1" source="22NSbje1e0_N6CiT3W4a-7" target="22NSbje1e0_N6CiT3W4a-12">
                    <mxGeometry relative="1" as="geometry"/>
                </mxCell>
                <mxCell id="22NSbje1e0_N6CiT3W4a-7" value="Proximity sensor 1" style="rhombus;whiteSpace=wrap;html=1;fontSize=14;fillColor=#f5f5f5;rounded=1;arcSize=14;strokeWidth=2;labelBackgroundColor=none;fontColor=#333333;strokeColor=#666666;" vertex="1" parent="22NSbje1e0_N6CiT3W4a-1">
                    <mxGeometry x="124.38" y="300" width="190" height="100" as="geometry"/>
                </mxCell>
                <mxCell id="22NSbje1e0_N6CiT3W4a-8" value="" style="shape=waypoint;sketch=0;size=6;pointerEvents=1;points=[];fillColor=none;resizable=0;rotatable=0;perimeter=centerPerimeter;snapToPoint=1;fontSize=14;rounded=1;arcSize=14;strokeWidth=2;labelBackgroundColor=none;gradientColor=default;" vertex="1" parent="22NSbje1e0_N6CiT3W4a-1">
                    <mxGeometry x="424.38" y="340" width="20" height="20" as="geometry"/>
                </mxCell>
                <mxCell id="22NSbje1e0_N6CiT3W4a-9" value="" style="edgeStyle=none;html=1;fontSize=14;strokeColor=#000000;" edge="1" parent="22NSbje1e0_N6CiT3W4a-1" source="22NSbje1e0_N6CiT3W4a-10" target="22NSbje1e0_N6CiT3W4a-5">
                    <mxGeometry relative="1" as="geometry"/>
                </mxCell>
                <mxCell id="22NSbje1e0_N6CiT3W4a-10" value="" style="shape=waypoint;sketch=0;size=6;pointerEvents=1;points=[];fillColor=none;resizable=0;rotatable=0;perimeter=centerPerimeter;snapToPoint=1;fontSize=14;rounded=1;arcSize=14;strokeWidth=2;labelBackgroundColor=none;gradientColor=default;" vertex="1" parent="22NSbje1e0_N6CiT3W4a-1">
                    <mxGeometry x="424.38" y="205" width="20" height="20" as="geometry"/>
                </mxCell>
                <mxCell id="22NSbje1e0_N6CiT3W4a-11" value="" style="edgeStyle=none;html=1;fontSize=14;strokeColor=#000000;" edge="1" parent="22NSbje1e0_N6CiT3W4a-1">
                    <mxGeometry relative="1" as="geometry">
                        <mxPoint x="314.38" y="349.7999999999998" as="sourcePoint"/>
                        <mxPoint x="434.38" y="349.7999999999998" as="targetPoint"/>
                    </mxGeometry>
                </mxCell>
                <mxCell id="22NSbje1e0_N6CiT3W4a-12" value="Pulse generate to Stepper 2" style="whiteSpace=wrap;html=1;fontSize=14;fillColor=#f5f5f5;rounded=1;arcSize=14;strokeWidth=2;labelBackgroundColor=none;fontColor=#333333;strokeColor=#666666;" vertex="1" parent="22NSbje1e0_N6CiT3W4a-1">
                    <mxGeometry x="114.38" y="450" width="210" height="70" as="geometry"/>
                </mxCell>
                <mxCell id="22NSbje1e0_N6CiT3W4a-13" value="" style="edgeStyle=none;html=1;fontSize=14;strokeColor=#080808;" edge="1" parent="22NSbje1e0_N6CiT3W4a-1" source="22NSbje1e0_N6CiT3W4a-14" target="22NSbje1e0_N6CiT3W4a-22">
                    <mxGeometry relative="1" as="geometry"/>
                </mxCell>
                <mxCell id="22NSbje1e0_N6CiT3W4a-14" value="Proximity sensor 2" style="rhombus;whiteSpace=wrap;html=1;fontSize=14;fillColor=#f5f5f5;rounded=1;arcSize=14;strokeWidth=2;labelBackgroundColor=none;fontColor=#333333;strokeColor=#666666;" vertex="1" parent="22NSbje1e0_N6CiT3W4a-1">
                    <mxGeometry x="124.38" y="570" width="190" height="100" as="geometry"/>
                </mxCell>
                <mxCell id="22NSbje1e0_N6CiT3W4a-15" value="" style="edgeStyle=none;html=1;fontSize=14;strokeColor=#080808;" edge="1" parent="22NSbje1e0_N6CiT3W4a-1" source="22NSbje1e0_N6CiT3W4a-12" target="22NSbje1e0_N6CiT3W4a-14">
                    <mxGeometry relative="1" as="geometry"/>
                </mxCell>
                <mxCell id="22NSbje1e0_N6CiT3W4a-16" value="" style="shape=waypoint;sketch=0;size=6;pointerEvents=1;points=[];fillColor=none;resizable=0;rotatable=0;perimeter=centerPerimeter;snapToPoint=1;fontSize=14;rounded=1;arcSize=14;strokeWidth=2;labelBackgroundColor=none;gradientColor=default;" vertex="1" parent="22NSbje1e0_N6CiT3W4a-1">
                    <mxGeometry x="424.38" y="610" width="20" height="20" as="geometry"/>
                </mxCell>
                <mxCell id="22NSbje1e0_N6CiT3W4a-17" value="" style="edgeStyle=none;html=1;fontSize=14;strokeColor=#080808;" edge="1" parent="22NSbje1e0_N6CiT3W4a-1" source="22NSbje1e0_N6CiT3W4a-18" target="22NSbje1e0_N6CiT3W4a-12">
                    <mxGeometry relative="1" as="geometry"/>
                </mxCell>
                <mxCell id="22NSbje1e0_N6CiT3W4a-18" value="" style="shape=waypoint;sketch=0;size=6;pointerEvents=1;points=[];fillColor=none;resizable=0;rotatable=0;perimeter=centerPerimeter;snapToPoint=1;fontSize=14;rounded=1;arcSize=14;strokeWidth=2;labelBackgroundColor=none;gradientColor=default;" vertex="1" parent="22NSbje1e0_N6CiT3W4a-1">
                    <mxGeometry x="424.38" y="475" width="20" height="20" as="geometry"/>
                </mxCell>
                <mxCell id="22NSbje1e0_N6CiT3W4a-19" value="" style="edgeStyle=none;html=1;fontSize=14;strokeColor=#080808;" edge="1" parent="22NSbje1e0_N6CiT3W4a-1" source="22NSbje1e0_N6CiT3W4a-16" target="22NSbje1e0_N6CiT3W4a-18">
                    <mxGeometry relative="1" as="geometry"/>
                </mxCell>
                <mxCell id="22NSbje1e0_N6CiT3W4a-20" value="False" style="edgeLabel;html=1;align=center;verticalAlign=middle;resizable=0;points=[];fontSize=14;labelBackgroundColor=#f2f1f4;fontColor=#050505;" vertex="1" connectable="0" parent="22NSbje1e0_N6CiT3W4a-19">
                    <mxGeometry x="-0.1128" y="-1" relative="1" as="geometry">
                        <mxPoint x="-1" y="-10" as="offset"/>
                    </mxGeometry>
                </mxCell>
                <mxCell id="22NSbje1e0_N6CiT3W4a-21" value="" style="edgeStyle=none;html=1;fontSize=14;strokeColor=#080808;" edge="1" parent="22NSbje1e0_N6CiT3W4a-1">
                    <mxGeometry relative="1" as="geometry">
                        <mxPoint x="314.38" y="619.7999999999997" as="sourcePoint"/>
                        <mxPoint x="434.38" y="619.7999999999997" as="targetPoint"/>
                    </mxGeometry>
                </mxCell>
                <mxCell id="22NSbje1e0_N6CiT3W4a-22" value="Enable PWM Interrupt" style="whiteSpace=wrap;html=1;fontSize=14;fillColor=#f5f5f5;rounded=1;arcSize=14;strokeWidth=2;labelBackgroundColor=none;fontColor=#333333;strokeColor=#666666;" vertex="1" parent="22NSbje1e0_N6CiT3W4a-1">
                    <mxGeometry x="159.38" y="720" width="120" height="60" as="geometry"/>
                </mxCell>
                <mxCell id="22NSbje1e0_N6CiT3W4a-23" value="" style="edgeStyle=none;html=1;fontSize=14;strokeColor=#080808;" edge="1" parent="22NSbje1e0_N6CiT3W4a-1" source="22NSbje1e0_N6CiT3W4a-24" target="22NSbje1e0_N6CiT3W4a-26">
                    <mxGeometry relative="1" as="geometry"/>
                </mxCell>
                <mxCell id="22NSbje1e0_N6CiT3W4a-24" value="Pulse Finish Callback" style="whiteSpace=wrap;html=1;fontSize=14;fillColor=#f5f5f5;rounded=1;arcSize=14;strokeWidth=2;labelBackgroundColor=none;fontColor=#333333;strokeColor=#666666;" vertex="1" parent="22NSbje1e0_N6CiT3W4a-1">
                    <mxGeometry x="147.18" y="840" width="150" height="70" as="geometry"/>
                </mxCell>
                <mxCell id="22NSbje1e0_N6CiT3W4a-25" value="" style="edgeStyle=none;html=1;fontSize=14;strokeColor=#080808;" edge="1" parent="22NSbje1e0_N6CiT3W4a-1" source="22NSbje1e0_N6CiT3W4a-26" target="22NSbje1e0_N6CiT3W4a-29">
                    <mxGeometry relative="1" as="geometry"/>
                </mxCell>
                <mxCell id="22NSbje1e0_N6CiT3W4a-26" value="Pulse_Count++" style="shape=parallelogram;perimeter=parallelogramPerimeter;whiteSpace=wrap;html=1;fixedSize=1;fontSize=14;fillColor=#f5f5f5;rounded=1;arcSize=14;strokeWidth=2;labelBackgroundColor=none;fontColor=#333333;strokeColor=#666666;" vertex="1" parent="22NSbje1e0_N6CiT3W4a-1">
                    <mxGeometry x="153.43" y="950" width="137.5" height="40" as="geometry"/>
                </mxCell>
                <mxCell id="22NSbje1e0_N6CiT3W4a-27" value="" style="edgeStyle=none;html=1;fontSize=14;strokeColor=#080808;" edge="1" parent="22NSbje1e0_N6CiT3W4a-1" source="22NSbje1e0_N6CiT3W4a-29" target="22NSbje1e0_N6CiT3W4a-30">
                    <mxGeometry relative="1" as="geometry"/>
                </mxCell>
                <mxCell id="22NSbje1e0_N6CiT3W4a-28" value="" style="edgeStyle=none;html=1;fontSize=14;strokeColor=#050505;" edge="1" parent="22NSbje1e0_N6CiT3W4a-1" source="22NSbje1e0_N6CiT3W4a-29" target="22NSbje1e0_N6CiT3W4a-34">
                    <mxGeometry relative="1" as="geometry"/>
                </mxCell>
                <mxCell id="22NSbje1e0_N6CiT3W4a-29" value="Pulse_Count &amp;gt;= PulseSet" style="rhombus;whiteSpace=wrap;html=1;fontSize=14;fillColor=#f5f5f5;rounded=1;arcSize=14;strokeWidth=2;labelBackgroundColor=none;fontColor=#333333;strokeColor=#666666;" vertex="1" parent="22NSbje1e0_N6CiT3W4a-1">
                    <mxGeometry x="102.81" y="1030" width="238.75" height="100" as="geometry"/>
                </mxCell>
                <mxCell id="22NSbje1e0_N6CiT3W4a-30" value="" style="shape=waypoint;sketch=0;size=6;pointerEvents=1;points=[];fillColor=none;resizable=0;rotatable=0;perimeter=centerPerimeter;snapToPoint=1;fontSize=14;rounded=1;arcSize=14;strokeWidth=2;labelBackgroundColor=none;gradientColor=default;" vertex="1" parent="22NSbje1e0_N6CiT3W4a-1">
                    <mxGeometry x="407.185" y="1070" width="20" height="20" as="geometry"/>
                </mxCell>
                <mxCell id="22NSbje1e0_N6CiT3W4a-31" value="Continue PWM generate" style="whiteSpace=wrap;html=1;fontSize=14;fillColor=#f5f5f5;sketch=0;rounded=1;arcSize=14;strokeWidth=2;labelBackgroundColor=none;fontColor=#333333;strokeColor=#666666;" vertex="1" parent="22NSbje1e0_N6CiT3W4a-1">
                    <mxGeometry x="357.185" y="920" width="120" height="60" as="geometry"/>
                </mxCell>
                <mxCell id="22NSbje1e0_N6CiT3W4a-32" value="" style="edgeStyle=none;html=1;fontSize=14;exitX=0.51;exitY=0.36;exitDx=0;exitDy=0;exitPerimeter=0;strokeColor=#080808;" edge="1" parent="22NSbje1e0_N6CiT3W4a-1" source="22NSbje1e0_N6CiT3W4a-30">
                    <mxGeometry relative="1" as="geometry">
                        <mxPoint x="416.9850000000001" y="1050" as="sourcePoint"/>
                        <mxPoint x="416.9850000000001" y="980" as="targetPoint"/>
                    </mxGeometry>
                </mxCell>
                <mxCell id="22NSbje1e0_N6CiT3W4a-33" value="False" style="edgeLabel;html=1;align=center;verticalAlign=middle;resizable=0;points=[];fontSize=14;labelBackgroundColor=#f2f1f4;fontColor=#050505;" vertex="1" connectable="0" parent="22NSbje1e0_N6CiT3W4a-32">
                    <mxGeometry x="-0.3286" y="-1" relative="1" as="geometry">
                        <mxPoint x="-1" y="-16" as="offset"/>
                    </mxGeometry>
                </mxCell>
                <mxCell id="22NSbje1e0_N6CiT3W4a-34" value="Disable PWM interrupt &lt;br&gt;&amp;amp; PWM generate" style="whiteSpace=wrap;html=1;fontSize=14;fillColor=#f5f5f5;rounded=1;arcSize=14;strokeWidth=2;labelBackgroundColor=none;fontColor=#333333;strokeColor=#666666;" vertex="1" parent="22NSbje1e0_N6CiT3W4a-1">
                    <mxGeometry x="134.67000000000002" y="1170" width="175.01" height="90" as="geometry"/>
                </mxCell>
                <mxCell id="22NSbje1e0_N6CiT3W4a-35" value="" style="edgeStyle=none;html=1;fontSize=14;strokeColor=#000000;" edge="1" parent="22NSbje1e0_N6CiT3W4a-1">
                    <mxGeometry relative="1" as="geometry">
                        <mxPoint x="434.39" y="350" as="sourcePoint"/>
                        <mxPoint x="434.39" y="215" as="targetPoint"/>
                    </mxGeometry>
                </mxCell>
                <mxCell id="22NSbje1e0_N6CiT3W4a-36" value="False" style="edgeLabel;html=1;align=center;verticalAlign=middle;resizable=0;points=[];fontSize=14;labelBackgroundColor=#f2f1f4;fontColor=#050505;" vertex="1" connectable="0" parent="22NSbje1e0_N6CiT3W4a-35">
                    <mxGeometry x="-0.1292" y="-1" relative="1" as="geometry">
                        <mxPoint x="-1" y="-11" as="offset"/>
                    </mxGeometry>
                </mxCell>
                <mxCell id="22NSbje1e0_N6CiT3W4a-37" value="" style="line;strokeWidth=4;html=1;perimeter=backbonePerimeter;points=[];outlineConnect=0;labelBackgroundColor=none;strokeColor=#000000;fontSize=14;fillColor=none;gradientColor=default;" vertex="1" parent="22NSbje1e0_N6CiT3W4a-1">
                    <mxGeometry y="810" width="580" height="10" as="geometry"/>
                </mxCell>
            </root>
        </mxGraphModel>
    </diagram>
    <diagram id="knLT30tECiFSUVDmeRB3" name="Page-3">
        <mxGraphModel dx="3426" dy="1948" grid="1" gridSize="10" guides="1" tooltips="1" connect="1" arrows="1" fold="1" page="1" pageScale="1" pageWidth="1169" pageHeight="1654" background="#ffffff" math="0" shadow="0">
            <root>
                <mxCell id="0"/>
                <mxCell id="1" parent="0"/>
                <mxCell id="JZU2b6wUmtc_5KxaKh1X-1" value="HAL_UART_RxCpltCallback" style="swimlane;labelBackgroundColor=none;strokeColor=#080707;strokeWidth=2;fontSize=19;fillColor=none;gradientColor=default;startSize=30;fontColor=#121111;" vertex="1" parent="1">
                    <mxGeometry x="1443" y="240" width="622" height="870" as="geometry"/>
                </mxCell>
                <mxCell id="JZU2b6wUmtc_5KxaKh1X-2" value="" style="edgeStyle=none;html=1;fontSize=19;strokeColor=#000000;" edge="1" parent="JZU2b6wUmtc_5KxaKh1X-1" source="JZU2b6wUmtc_5KxaKh1X-3" target="JZU2b6wUmtc_5KxaKh1X-6">
                    <mxGeometry relative="1" as="geometry"/>
                </mxCell>
                <mxCell id="JZU2b6wUmtc_5KxaKh1X-3" value="uint8_t UART_Rx_Buffer[25]" style="shape=parallelogram;html=1;strokeWidth=2;perimeter=parallelogramPerimeter;whiteSpace=wrap;rounded=1;arcSize=12;size=0.23;labelBackgroundColor=none;strokeColor=#666666;fontSize=19;fillColor=#f5f5f5;fontColor=#333333;" vertex="1" parent="JZU2b6wUmtc_5KxaKh1X-1">
                    <mxGeometry x="69.75" y="47.5" width="402.5" height="70" as="geometry"/>
                </mxCell>
                <mxCell id="JZU2b6wUmtc_5KxaKh1X-4" value="" style="edgeStyle=none;html=1;fontSize=19;strokeColor=#000000;" edge="1" parent="JZU2b6wUmtc_5KxaKh1X-1" source="JZU2b6wUmtc_5KxaKh1X-6" target="JZU2b6wUmtc_5KxaKh1X-9">
                    <mxGeometry relative="1" as="geometry"/>
                </mxCell>
                <mxCell id="JZU2b6wUmtc_5KxaKh1X-5" value="" style="edgeStyle=none;html=1;fontSize=19;startArrow=none;strokeColor=#000000;" edge="1" parent="JZU2b6wUmtc_5KxaKh1X-1" source="JZU2b6wUmtc_5KxaKh1X-22" target="JZU2b6wUmtc_5KxaKh1X-12">
                    <mxGeometry relative="1" as="geometry"/>
                </mxCell>
                <mxCell id="JZU2b6wUmtc_5KxaKh1X-6" value="Check position of charactor" style="rhombus;whiteSpace=wrap;html=1;fontSize=19;fillColor=#f5f5f5;strokeWidth=2;rounded=1;arcSize=12;labelBackgroundColor=none;fontColor=#333333;strokeColor=#666666;" vertex="1" parent="JZU2b6wUmtc_5KxaKh1X-1">
                    <mxGeometry x="168.5" y="232.5" width="205" height="130" as="geometry"/>
                </mxCell>
                <mxCell id="JZU2b6wUmtc_5KxaKh1X-7" value="" style="edgeStyle=none;html=1;fontSize=19;strokeColor=#000000;" edge="1" parent="JZU2b6wUmtc_5KxaKh1X-1" source="JZU2b6wUmtc_5KxaKh1X-9" target="JZU2b6wUmtc_5KxaKh1X-10">
                    <mxGeometry relative="1" as="geometry"/>
                </mxCell>
                <mxCell id="JZU2b6wUmtc_5KxaKh1X-8" value="True" style="edgeLabel;html=1;align=center;verticalAlign=middle;resizable=0;points=[];fontSize=19;labelBackgroundColor=#f5f3f7;fontColor=#000000;" vertex="1" connectable="0" parent="JZU2b6wUmtc_5KxaKh1X-7">
                    <mxGeometry x="-0.2751" relative="1" as="geometry">
                        <mxPoint y="-6" as="offset"/>
                    </mxGeometry>
                </mxCell>
                <mxCell id="JZU2b6wUmtc_5KxaKh1X-9" value="" style="shape=waypoint;sketch=0;size=6;pointerEvents=1;points=[];fillColor=none;resizable=0;rotatable=0;perimeter=centerPerimeter;snapToPoint=1;fontSize=19;strokeWidth=2;rounded=1;arcSize=12;labelBackgroundColor=none;gradientColor=default;" vertex="1" parent="JZU2b6wUmtc_5KxaKh1X-1">
                    <mxGeometry x="452.25" y="287.5" width="20" height="20" as="geometry"/>
                </mxCell>
                <mxCell id="JZU2b6wUmtc_5KxaKh1X-10" value="Continue recive DMA" style="whiteSpace=wrap;html=1;fontSize=19;fillColor=#f5f5f5;sketch=0;strokeWidth=2;rounded=1;arcSize=12;labelBackgroundColor=none;fontColor=#333333;strokeColor=#666666;" vertex="1" parent="JZU2b6wUmtc_5KxaKh1X-1">
                    <mxGeometry x="373.5" y="142.5" width="178.75" height="75" as="geometry"/>
                </mxCell>
                <mxCell id="JZU2b6wUmtc_5KxaKh1X-11" value="" style="edgeStyle=none;html=1;fontSize=19;strokeColor=#000000;" edge="1" parent="JZU2b6wUmtc_5KxaKh1X-1" source="JZU2b6wUmtc_5KxaKh1X-12" target="JZU2b6wUmtc_5KxaKh1X-15">
                    <mxGeometry relative="1" as="geometry"/>
                </mxCell>
                <mxCell id="JZU2b6wUmtc_5KxaKh1X-12" value="Handle function, recive single byte" style="whiteSpace=wrap;html=1;fontSize=19;fillColor=#f5f5f5;strokeWidth=2;rounded=1;arcSize=12;labelBackgroundColor=none;fontColor=#333333;strokeColor=#666666;" vertex="1" parent="JZU2b6wUmtc_5KxaKh1X-1">
                    <mxGeometry x="176" y="422.5" width="190" height="80" as="geometry"/>
                </mxCell>
                <mxCell id="JZU2b6wUmtc_5KxaKh1X-13" value="" style="edgeStyle=none;html=1;fontSize=19;strokeColor=#000000;" edge="1" parent="JZU2b6wUmtc_5KxaKh1X-1" source="JZU2b6wUmtc_5KxaKh1X-15" target="JZU2b6wUmtc_5KxaKh1X-18">
                    <mxGeometry relative="1" as="geometry"/>
                </mxCell>
                <mxCell id="JZU2b6wUmtc_5KxaKh1X-14" value="" style="edgeStyle=none;html=1;fontSize=19;strokeColor=#000000;" edge="1" parent="JZU2b6wUmtc_5KxaKh1X-1" source="JZU2b6wUmtc_5KxaKh1X-15" target="JZU2b6wUmtc_5KxaKh1X-23">
                    <mxGeometry relative="1" as="geometry"/>
                </mxCell>
                <mxCell id="JZU2b6wUmtc_5KxaKh1X-15" value="Temp_Buffer == end char ?" style="rhombus;whiteSpace=wrap;html=1;fontSize=19;fillColor=#f5f5f5;strokeWidth=2;rounded=1;arcSize=12;labelBackgroundColor=none;fontColor=#333333;strokeColor=#666666;" vertex="1" parent="JZU2b6wUmtc_5KxaKh1X-1">
                    <mxGeometry x="96" y="562.5" width="350" height="120" as="geometry"/>
                </mxCell>
                <mxCell id="JZU2b6wUmtc_5KxaKh1X-16" value="" style="edgeStyle=none;html=1;fontSize=19;strokeColor=#000000;" edge="1" parent="JZU2b6wUmtc_5KxaKh1X-1" source="JZU2b6wUmtc_5KxaKh1X-18" target="JZU2b6wUmtc_5KxaKh1X-20">
                    <mxGeometry relative="1" as="geometry"/>
                </mxCell>
                <mxCell id="JZU2b6wUmtc_5KxaKh1X-17" value="False" style="edgeLabel;html=1;align=center;verticalAlign=middle;resizable=0;points=[];fontSize=19;labelBackgroundColor=#f5f3f7;fontColor=#000000;" vertex="1" connectable="0" parent="JZU2b6wUmtc_5KxaKh1X-16">
                    <mxGeometry x="0.1855" y="-1" relative="1" as="geometry">
                        <mxPoint x="-1" y="16" as="offset"/>
                    </mxGeometry>
                </mxCell>
                <mxCell id="JZU2b6wUmtc_5KxaKh1X-18" value="" style="shape=waypoint;sketch=0;size=6;pointerEvents=1;points=[];fillColor=none;resizable=0;rotatable=0;perimeter=centerPerimeter;snapToPoint=1;fontSize=19;strokeWidth=2;rounded=1;arcSize=12;labelBackgroundColor=none;gradientColor=default;" vertex="1" parent="JZU2b6wUmtc_5KxaKh1X-1">
                    <mxGeometry x="521" y="612.5" width="20" height="20" as="geometry"/>
                </mxCell>
                <mxCell id="JZU2b6wUmtc_5KxaKh1X-19" value="" style="edgeStyle=none;html=1;fontSize=19;strokeColor=#000000;" edge="1" parent="JZU2b6wUmtc_5KxaKh1X-1" source="JZU2b6wUmtc_5KxaKh1X-20" target="JZU2b6wUmtc_5KxaKh1X-22">
                    <mxGeometry relative="1" as="geometry"/>
                </mxCell>
                <mxCell id="JZU2b6wUmtc_5KxaKh1X-20" value="" style="shape=waypoint;sketch=0;size=6;pointerEvents=1;points=[];fillColor=none;resizable=0;rotatable=0;perimeter=centerPerimeter;snapToPoint=1;fontSize=19;strokeWidth=2;rounded=1;arcSize=12;labelBackgroundColor=none;gradientColor=default;" vertex="1" parent="JZU2b6wUmtc_5KxaKh1X-1">
                    <mxGeometry x="521" y="382.5" width="20" height="20" as="geometry"/>
                </mxCell>
                <mxCell id="JZU2b6wUmtc_5KxaKh1X-21" value="" style="edgeStyle=none;html=1;fontSize=19;endArrow=none;strokeColor=#000000;" edge="1" parent="JZU2b6wUmtc_5KxaKh1X-1" source="JZU2b6wUmtc_5KxaKh1X-6" target="JZU2b6wUmtc_5KxaKh1X-22">
                    <mxGeometry relative="1" as="geometry">
                        <mxPoint x="2111" y="532.5" as="sourcePoint"/>
                        <mxPoint x="2111" y="592.5" as="targetPoint"/>
                    </mxGeometry>
                </mxCell>
                <mxCell id="JZU2b6wUmtc_5KxaKh1X-22" value="" style="shape=waypoint;sketch=0;size=6;pointerEvents=1;points=[];fillColor=none;resizable=0;rotatable=0;perimeter=centerPerimeter;snapToPoint=1;fontSize=19;strokeWidth=2;rounded=1;arcSize=12;labelBackgroundColor=none;gradientColor=default;" vertex="1" parent="JZU2b6wUmtc_5KxaKh1X-1">
                    <mxGeometry x="261" y="382.5" width="20" height="20" as="geometry"/>
                </mxCell>
                <mxCell id="JZU2b6wUmtc_5KxaKh1X-23" value="Continue recive DMA" style="rounded=1;whiteSpace=wrap;html=1;fontSize=19;fillColor=#f5f5f5;strokeWidth=2;arcSize=12;labelBackgroundColor=none;fontColor=#333333;strokeColor=#666666;" vertex="1" parent="JZU2b6wUmtc_5KxaKh1X-1">
                    <mxGeometry x="181" y="742.5" width="180" height="80" as="geometry"/>
                </mxCell>
            </root>
        </mxGraphModel>
    </diagram>
    <diagram id="IAihE06JW3LsH9_G3YXR" name="Page-5">
        <mxGraphModel dx="1598" dy="779" grid="1" gridSize="10" guides="1" tooltips="1" connect="1" arrows="1" fold="1" page="1" pageScale="1" pageWidth="1169" pageHeight="1654" math="1" shadow="0">
            <root>
                <mxCell id="0"/>
                <mxCell id="1" parent="0"/>
            </root>
        </mxGraphModel>
    </diagram>
</mxfile>